<svg data-v-2cb57da0="" version="1.0" xmlns="http://www.w3.org/2000/svg" xmlns:xlink="http://www.w3.org/1999/xlink" width="100%" height="100%" viewBox="0 0 340.000000 250.000000" preserveAspectRatio="xMidYMid meet" color-interpolation-filters="sRGB" style="margin: auto;"><rect data-v-2cb57da0="" x="0" y="0" width="100%" height="100%" fill="#ffffff" fill-opacity="0" class="background"></rect> <rect data-v-2cb57da0="" x="0" y="0" width="100%" height="100%" fill="url(#watermark)" fill-opacity="1" class="watermarklayer"></rect> <g data-v-2cb57da0="" class="iconmbgsvg" transform="translate(72.70750427246094,85)"><g fill="#343c3e" hollow-target="text"><g mask="url(#b74fb620-22a9-4e7a-8171-7de8f5c106ab)" opacity="1" transform="matrix(1,0,0,1,0,0)"><g><rect fill="#343c3e" fill-opacity="0" stroke-width="2" x="0" y="0" width="80" height="80" class="image-rect"></rect> <svg x="0" y="0" width="80" height="80" filtersec="colorsb1631733357" class="image-svg-svg primary" style="overflow: visible;"><svg fill="#0bbf64" xmlns="http://www.w3.org/2000/svg" xmlns:xlink="http://www.w3.org/1999/xlink" xml:space="preserve" version="1.1" style="shape-rendering:geometricPrecision;text-rendering:geometricPrecision;image-rendering:optimizeQuality;" viewBox="0 0 249 249" x="0px" y="0px" fill-rule="evenodd" clip-rule="evenodd"><defs></defs><g><path class="fil0" d="M125 0c68,0 124,56 124,125 0,68 -56,124 -124,124 -69,0 -125,-56 -125,-124 0,-69 56,-125 125,-125z"></path></g></svg></svg> <!----></g></g> <g transform="translate(13.415000915527344,20.361000061035156)"><g data-gra="path-name" fill-rule="" class="tp-name" transform="matrix(1,0,0,1,0,0)" opacity="1"><g transform="scale(1)"><g><path d="M27.58-22.05L27.58-22.05Q27.58-20.75 27.2-19.71 26.82-18.68 26.14-17.86 25.47-17.05 24.57-16.43 23.67-15.79 22.59-15.25L22.59-15.25Q23.09-15.07 23.76-14.69 24.43-14.31 25.06-13.63 25.7-12.96 26.12-11.9 26.55-10.84 26.55-9.31L26.55-9.31Q26.55-7.29 25.7-5.58 24.84-3.87 23.15-2.63 21.46-1.4 19.01-0.7 16.56 0 13.37 0L13.37 0 0 0 6.08-28.57 17.91-28.57Q19.66-28.57 21.4-28.33 23.13-28.08 24.5-27.36 25.88-26.64 26.73-25.36 27.58-24.07 27.58-22.05ZM13.28-16.61L15.34-16.61Q16.34-16.61 17.03-17.19 17.73-17.77 18.18-18.65 18.63-19.53 18.86-20.54 19.08-21.55 19.08-22.36L19.08-22.36Q19.08-23.67 18.47-24.59 17.86-25.52 16.56-25.52L16.56-25.52 15.21-25.52 13.28-16.61ZM10.3-2.83L12.11-2.83Q13.46-2.83 14.35-3.6 15.25-4.37 15.84-5.49 16.43-6.61 16.67-7.85 16.92-9.09 16.92-10.04L16.92-10.04Q16.92-11.61 16.27-12.53 15.62-13.46 14.17-13.46L14.17-13.46 12.51-13.46 10.3-2.83ZM30.38-13.68L31.23-17.68Q33.52-18.81 35.93-19.33 38.34-19.84 41.31-19.84L41.31-19.84Q44.19-19.84 46.08-19.39 47.97-18.95 49.09-18.09 50.22-17.23 50.67-16.06 51.12-14.89 51.12-13.41L51.12-13.41Q51.12-12.55 51.01-11.56 50.89-10.57 50.76-9.9L50.76-9.9 48.64 0 41.4 0 40.59-2.88 40.32-2.88Q38.88-1.3 36.97-0.47 35.05 0.36 33.16 0.36L33.16 0.36Q32.09 0.36 31.05 0.04 30.01-0.27 29.2-0.92 28.39-1.57 27.9-2.59 27.4-3.6 27.4-5.04L27.4-5.04Q27.4-7.38 28.69-8.75 29.97-10.13 32.06-10.82 34.16-11.52 36.79-11.7 39.42-11.88 42.07-11.88L42.07-11.88Q42.16-12.33 42.3-13.16 42.44-13.99 42.44-14.63L42.44-14.63Q42.44-15.43 42.01-16.13 41.58-16.83 40.23-16.83L40.23-16.83Q38.66-16.83 37.91-15.91 37.17-14.98 36.95-13.68L36.95-13.68 30.38-13.68ZM40.86-6.3L41.58-9.76 40.77-9.76Q39.46-9.76 38.54-9.43 37.62-9.09 37.06-8.55 36.49-8.01 36.22-7.33 35.95-6.66 35.95-5.98L35.95-5.98Q35.95-4.91 36.52-4.37 37.08-3.82 37.84-3.82L37.84-3.82Q38.79-3.82 39.71-4.5 40.63-5.17 40.86-6.3L40.86-6.3ZM64.62-16.47L64.89-16.47Q65.83-17.37 67-18.13L67-18.13Q68.04-18.77 69.44-19.3 70.83-19.84 72.54-19.84L72.54-19.84Q74.88-19.84 76.41-18.65 77.94-17.46 77.94-15.39L77.94-15.39Q77.94-14.8 77.8-13.97 77.67-13.14 77.49-12.24 77.31-11.34 77.11-10.42 76.91-9.49 76.77-8.78L76.77-8.78 74.88 0 65.75 0 68.22-11.74Q68.31-12.33 68.44-12.94 68.58-13.54 68.58-14.04L68.58-14.04Q68.58-14.71 68.24-15.14 67.91-15.57 67.23-15.57L67.23-15.57Q66.42-15.57 65.68-14.98 64.94-14.4 64.53-13.99L64.53-13.99 61.56 0 52.38 0 56.48-19.35 63.81-19.35 64.62-16.47ZM95.53-16.43L97.56-19.35 104.85-19.35 101.16-1.84Q100.75 0.18 99.81 1.89 98.86 3.6 97.18 4.86 95.49 6.12 92.95 6.84 90.4 7.56 86.76 7.56L86.76 7.56Q86.08 7.56 85.14 7.54 84.19 7.51 83.2 7.49 82.21 7.47 81.31 7.42 80.41 7.38 79.87 7.33L79.87 7.33 80.73 4.09Q82.17 4.32 83.68 4.34 85.18 4.37 86.26 4.37L86.26 4.37Q87.61 4.37 88.54 4.12 89.46 3.87 90.07 3.33 90.67 2.79 91.06 1.89 91.44 0.99 91.66-0.32L91.66-0.32 92.2-3.24 91.89-3.24Q91.62-2.83 91.1-2.27 90.58-1.71 89.77-1.19 88.96-0.67 87.86-0.34 86.76 0 85.36 0L85.36 0Q83.79 0 82.69-0.47 81.58-0.94 80.91-1.78 80.23-2.61 79.92-3.76 79.6-4.91 79.6-6.25L79.6-6.25Q79.6-6.84 79.69-8.05 79.78-9.27 80.12-10.8 80.46-12.33 81.11-13.93 81.76-15.52 82.87-16.83 83.97-18.13 85.61-18.99 87.25-19.84 89.59-19.84L89.59-19.84Q90.31-19.84 91.17-19.71 92.02-19.57 92.83-19.21 93.64-18.86 94.27-18.18 94.9-17.5 95.26-16.43L95.26-16.43 95.53-16.43ZM92.52-15.43L92.52-15.43Q91.44-15.43 90.72-14.29 90-13.14 89.55-11.61 89.1-10.08 88.9-8.57 88.69-7.06 88.69-6.34L88.69-6.34Q88.69-5.44 88.99-4.84 89.28-4.23 90.04-4.23L90.04-4.23Q90.49-4.23 90.92-4.46 91.35-4.68 91.73-4.97 92.11-5.26 92.41-5.58 92.7-5.89 92.83-6.08L92.83-6.08 94.5-13.95Q94.14-14.45 93.67-14.94 93.19-15.43 92.52-15.43ZM118.98-5.35L121.99-19.35 131.17-19.35 127.03 0 119.74 0 118.93-2.88 118.66-2.88Q117.49-1.48 115.49-0.56 113.49 0.36 111.46 0.36L111.46 0.36Q108.76 0.36 107.23-1.01 105.7-2.38 105.7-4.59L105.7-4.59Q105.7-5.71 106.09-7.4 106.47-9.09 106.78-10.57L106.78-10.57 108.67-19.35 117.81-19.35 115.56-8.82Q115.47-8.46 115.38-7.96 115.29-7.47 115.2-7 115.11-6.52 115.04-6.1 114.97-5.67 114.97-5.4L114.97-5.4Q114.97-4.72 115.27-4.25 115.56-3.78 116.32-3.78L116.32-3.78Q117.13-3.78 117.85-4.32 118.57-4.86 118.98-5.35L118.98-5.35ZM146.7-30.24L142.65-11.16 153.13-19.35 159.07-19.35 150.12-12.01 156.82 0 146.74 0 142.15-9.04 140.26 0 131.08 0 137.47-30.24 146.7-30.24ZM160.42-13.68L161.28-17.68Q163.57-18.81 165.98-19.33 168.39-19.84 171.36-19.84L171.36-19.84Q174.24-19.84 176.13-19.39 178.02-18.95 179.14-18.09 180.27-17.23 180.72-16.06 181.17-14.89 181.17-13.41L181.17-13.41Q181.17-12.55 181.06-11.56 180.94-10.57 180.81-9.9L180.81-9.9 178.69 0 171.45 0 170.64-2.88 170.37-2.88Q168.93-1.3 167.02-0.47 165.1 0.36 163.21 0.36L163.21 0.36Q162.13 0.36 161.1 0.04 160.06-0.27 159.25-0.92 158.44-1.57 157.95-2.59 157.45-3.6 157.45-5.04L157.45-5.04Q157.45-7.38 158.74-8.75 160.02-10.13 162.11-10.82 164.2-11.52 166.84-11.7 169.47-11.88 172.12-11.88L172.12-11.88Q172.21-12.33 172.35-13.16 172.48-13.99 172.48-14.63L172.48-14.63Q172.48-15.43 172.06-16.13 171.63-16.83 170.28-16.83L170.28-16.83Q168.7-16.83 167.96-15.91 167.22-14.98 166.99-13.68L166.99-13.68 160.42-13.68ZM170.91-6.3L171.63-9.76 170.82-9.76Q169.51-9.76 168.59-9.43 167.67-9.09 167.11-8.55 166.54-8.01 166.27-7.33 166-6.66 166-5.98L166-5.98Q166-4.91 166.57-4.37 167.13-3.82 167.89-3.82L167.89-3.82Q168.84-3.82 169.76-4.5 170.68-5.17 170.91-6.3L170.91-6.3Z" transform="translate(0, 30.239999771118164)"></path></g> <!----> <!----> <!----> <!----> <!----> <!----> <!----></g></g> <g data-gra="path-slogan" fill-rule="" class="tp-slogan" fill="#343C3E" transform="matrix(1,0,0,1,75.40999984741211,44.79999923706055)" opacity="1"><!----> <!----> <g transform="scale(1, 1)"><g transform="scale(1)"><path d="M0.99 0L0.99-7.22L5.15-7.22L5.15-6.45L1.90-6.45L1.90-4.18L4.64-4.18L4.64-3.40L1.90-3.40L1.90-0.78L5.26-0.78L5.26 0L0.99 0ZM8.69-2.94L10.86-2.94L10.52-4.04Q10.32-4.64 10.14-5.24Q9.96-5.84 9.79-6.47L9.79-6.47L9.74-6.47Q9.58-5.84 9.40-5.24Q9.23-4.64 9.03-4.04L9.03-4.04L8.69-2.94ZM11.77 0L11.09-2.20L8.46-2.20L7.76 0L6.83 0L9.27-7.22L10.31-7.22L12.75 0L11.77 0ZM14.24-0.93L14.79-1.57Q15.18-1.17 15.70-0.92Q16.22-0.67 16.78-0.67L16.78-0.67Q17.50-0.67 17.89-1.00Q18.29-1.32 18.29-1.85L18.29-1.85Q18.29-2.12 18.20-2.32Q18.10-2.51 17.94-2.65Q17.78-2.78 17.56-2.89Q17.34-3.00 17.09-3.12L17.09-3.12L16.06-3.57Q15.80-3.68 15.54-3.84Q15.28-3.99 15.07-4.21Q14.86-4.43 14.73-4.74Q14.59-5.04 14.59-5.43L14.59-5.43Q14.59-5.84 14.77-6.19Q14.94-6.54 15.24-6.80Q15.54-7.06 15.95-7.20Q16.37-7.35 16.86-7.35L16.86-7.35Q17.51-7.35 18.06-7.10Q18.61-6.85 18.99-6.46L18.99-6.46L18.50-5.86Q18.17-6.18 17.77-6.36Q17.37-6.54 16.86-6.54L16.86-6.54Q16.26-6.54 15.89-6.26Q15.52-5.98 15.52-5.49L15.52-5.49Q15.52-5.22 15.62-5.04Q15.73-4.86 15.90-4.72Q16.08-4.59 16.29-4.48Q16.50-4.38 16.72-4.29L16.72-4.29L17.74-3.85Q18.05-3.72 18.32-3.55Q18.60-3.38 18.80-3.15Q18.99-2.93 19.11-2.62Q19.23-2.32 19.23-1.92L19.23-1.92Q19.23-1.50 19.06-1.12Q18.88-0.75 18.57-0.47Q18.25-0.19 17.80-0.03Q17.34 0.13 16.77 0.13L16.77 0.13Q16.01 0.13 15.36-0.15Q14.72-0.44 14.24-0.93L14.24-0.93ZM22.73 0L22.73-2.79L20.57-7.22L21.55-7.22L22.48-5.18Q22.66-4.79 22.82-4.40Q22.99-4.01 23.17-3.61L23.17-3.61L23.22-3.61Q23.40-4.01 23.59-4.40Q23.78-4.79 23.94-5.18L23.94-5.18L24.87-7.22L25.82-7.22L23.66-2.79L23.66 0L22.73 0ZM31.82 0L30.29-7.22L31.23-7.22L31.99-3.29Q32.09-2.69 32.20-2.12Q32.31-1.55 32.41-0.96L32.41-0.96L32.46-0.96Q32.58-1.55 32.71-2.13Q32.84-2.71 32.96-3.29L32.96-3.29L33.96-7.22L34.80-7.22L35.80-3.29Q35.93-2.72 36.06-2.13Q36.20-1.55 36.33-0.96L36.33-0.96L36.37-0.96Q36.47-1.55 36.57-2.13Q36.67-2.71 36.78-3.29L36.78-3.29L37.54-7.22L38.42-7.22L36.92 0L35.82 0L34.73-4.34Q34.63-4.76 34.55-5.16Q34.47-5.57 34.38-5.98L34.38-5.98L34.34-5.98Q34.25-5.57 34.16-5.16Q34.06-4.76 33.97-4.34L33.97-4.34L32.91 0L31.82 0ZM41.57-2.94L43.74-2.94L43.40-4.04Q43.20-4.64 43.03-5.24Q42.85-5.84 42.67-6.47L42.67-6.47L42.63-6.47Q42.46-5.84 42.29-5.24Q42.11-4.64 41.91-4.04L41.91-4.04L41.57-2.94ZM44.65 0L43.97-2.20L41.34-2.20L40.65 0L39.71 0L42.16-7.22L43.19-7.22L45.63 0L44.65 0ZM48.67 0L48.67-2.79L46.50-7.22L47.48-7.22L48.41-5.18Q48.59-4.79 48.76-4.40Q48.92-4.01 49.11-3.61L49.11-3.61L49.15-3.61Q49.34-4.01 49.53-4.40Q49.71-4.79 49.88-5.18L49.88-5.18L50.80-7.22L51.76-7.22L49.59-2.79L49.59 0L48.67 0ZM58.46 0L58.46-6.45L56.28-6.45L56.28-7.22L61.56-7.22L61.56-6.45L59.38-6.45L59.38 0L58.46 0ZM66.25 0.13L66.25 0.13Q65.57 0.13 65.01-0.13Q64.44-0.40 64.03-0.89Q63.62-1.38 63.40-2.07Q63.17-2.77 63.17-3.64L63.17-3.64Q63.17-4.51 63.40-5.20Q63.62-5.88 64.03-6.36Q64.44-6.84 65.01-7.09Q65.57-7.35 66.25-7.35L66.25-7.35Q66.94-7.35 67.50-7.09Q68.07-6.83 68.48-6.35Q68.89-5.87 69.12-5.19Q69.34-4.50 69.34-3.64L69.34-3.64Q69.34-2.77 69.12-2.07Q68.89-1.38 68.48-0.89Q68.07-0.40 67.50-0.13Q66.94 0.13 66.25 0.13ZM66.25-0.67L66.25-0.67Q66.74-0.67 67.13-0.88Q67.52-1.09 67.80-1.48Q68.08-1.87 68.23-2.41Q68.39-2.96 68.39-3.64L68.39-3.64Q68.39-4.31 68.23-4.85Q68.08-5.39 67.80-5.76Q67.52-6.14 67.13-6.34Q66.74-6.54 66.25-6.54L66.25-6.54Q65.77-6.54 65.38-6.34Q64.99-6.14 64.71-5.76Q64.43-5.39 64.27-4.85Q64.12-4.31 64.12-3.64L64.12-3.64Q64.12-2.96 64.27-2.41Q64.43-1.87 64.71-1.48Q64.99-1.09 65.38-0.88Q65.77-0.67 66.25-0.67ZM74.59-0.93L75.14-1.57Q75.52-1.17 76.05-0.92Q76.57-0.67 77.13-0.67L77.13-0.67Q77.85-0.67 78.24-1.00Q78.64-1.32 78.64-1.85L78.64-1.85Q78.64-2.12 78.54-2.32Q78.45-2.51 78.29-2.65Q78.13-2.78 77.91-2.89Q77.69-3.00 77.44-3.12L77.44-3.12L76.40-3.57Q76.15-3.68 75.89-3.84Q75.62-3.99 75.41-4.21Q75.21-4.43 75.07-4.74Q74.94-5.04 74.94-5.43L74.94-5.43Q74.94-5.84 75.11-6.19Q75.28-6.54 75.59-6.80Q75.89-7.06 76.30-7.20Q76.71-7.35 77.21-7.35L77.21-7.35Q77.86-7.35 78.41-7.10Q78.96-6.85 79.34-6.46L79.34-6.46L78.85-5.86Q78.52-6.18 78.12-6.36Q77.71-6.54 77.21-6.54L77.21-6.54Q76.60-6.54 76.23-6.26Q75.87-5.98 75.87-5.49L75.87-5.49Q75.87-5.22 75.97-5.04Q76.07-4.86 76.25-4.72Q76.43-4.59 76.64-4.48Q76.84-4.38 77.06-4.29L77.06-4.29L78.09-3.85Q78.40-3.72 78.67-3.55Q78.95-3.38 79.14-3.15Q79.34-2.93 79.46-2.62Q79.57-2.32 79.57-1.92L79.57-1.92Q79.57-1.50 79.40-1.12Q79.23-0.75 78.91-0.47Q78.59-0.19 78.14-0.03Q77.69 0.13 77.12 0.13L77.12 0.13Q76.36 0.13 75.71-0.15Q75.06-0.44 74.59-0.93L74.59-0.93ZM81.99 0L81.99-7.22L82.90-7.22L82.90-4.19L86.26-4.19L86.26-7.22L87.18-7.22L87.18 0L86.26 0L86.26-3.40L82.90-3.40L82.90 0L81.99 0ZM92.83 0.13L92.83 0.13Q92.14 0.13 91.58-0.13Q91.01-0.40 90.60-0.89Q90.20-1.38 89.97-2.07Q89.75-2.77 89.75-3.64L89.75-3.64Q89.75-4.51 89.97-5.20Q90.20-5.88 90.60-6.36Q91.01-6.84 91.58-7.09Q92.14-7.35 92.83-7.35L92.83-7.35Q93.51-7.35 94.07-7.09Q94.64-6.83 95.05-6.35Q95.47-5.87 95.69-5.19Q95.92-4.50 95.92-3.64L95.92-3.64Q95.92-2.77 95.69-2.07Q95.47-1.38 95.05-0.89Q94.64-0.40 94.07-0.13Q93.51 0.13 92.83 0.13ZM92.83-0.67L92.83-0.67Q93.31-0.67 93.70-0.88Q94.09-1.09 94.37-1.48Q94.65-1.87 94.81-2.41Q94.96-2.96 94.96-3.64L94.96-3.64Q94.96-4.31 94.81-4.85Q94.65-5.39 94.37-5.76Q94.09-6.14 93.70-6.34Q93.31-6.54 92.83-6.54L92.83-6.54Q92.34-6.54 91.95-6.34Q91.56-6.14 91.28-5.76Q91.00-5.39 90.85-4.85Q90.69-4.31 90.69-3.64L90.69-3.64Q90.69-2.96 90.85-2.41Q91.00-1.87 91.28-1.48Q91.56-1.09 91.95-0.88Q92.34-0.67 92.83-0.67ZM98.47 0L98.47-7.22L100.68-7.22Q101.27-7.22 101.77-7.11Q102.26-7.00 102.61-6.75Q102.96-6.50 103.15-6.09Q103.34-5.69 103.34-5.09L103.34-5.09Q103.34-4.52 103.15-4.10Q102.96-3.68 102.60-3.41Q102.25-3.13 101.76-3.00Q101.27-2.86 100.68-2.86L100.68-2.86L99.38-2.86L99.38 0L98.47 0ZM99.38-3.61L100.57-3.61Q101.51-3.61 101.97-3.97Q102.43-4.32 102.43-5.09L102.43-5.09Q102.43-5.87 101.97-6.18Q101.50-6.48 100.57-6.48L100.57-6.48L99.38-6.48L99.38-3.61Z" transform="translate(-0.99, 7.348)"></path></g></g></g></g></g></g><mask id="b74fb620-22a9-4e7a-8171-7de8f5c106ab"><g fill="white"><g><rect fill-opacity="1" stroke-width="2" x="0" y="0" width="80" height="80" class="image-rect"></rect> <svg x="0" y="0" width="80" height="80" filtersec="colorsb1631733357" class="image-svg-svg primary" style="overflow: visible;"><svg xmlns="http://www.w3.org/2000/svg" xmlns:xlink="http://www.w3.org/1999/xlink" xml:space="preserve" version="1.1" style="shape-rendering:geometricPrecision;text-rendering:geometricPrecision;image-rendering:optimizeQuality;" viewBox="0 0 249 249" x="0px" y="0px" fill-rule="evenodd" clip-rule="evenodd"><defs></defs><g><path class="fil0" d="M125 0c68,0 124,56 124,125 0,68 -56,124 -124,124 -69,0 -125,-56 -125,-124 0,-69 56,-125 125,-125z"></path></g></svg></svg> </g></g> <g transform="translate(13.415000915527344,20.361000061035156)" fill="black" stroke="black" stroke-width="6" stroke-linejoin="round"><g data-gra="path-name" fill-rule="" class="tp-name" transform="matrix(1,0,0,1,0,0)" opacity="1"><g transform="scale(1)"><g><path d="M27.58-22.05L27.58-22.05Q27.58-20.75 27.2-19.71 26.82-18.68 26.14-17.86 25.47-17.05 24.57-16.43 23.67-15.79 22.59-15.25L22.59-15.25Q23.09-15.07 23.76-14.69 24.43-14.31 25.06-13.63 25.7-12.96 26.12-11.9 26.55-10.84 26.55-9.31L26.55-9.31Q26.55-7.29 25.7-5.58 24.84-3.87 23.15-2.63 21.46-1.4 19.01-0.7 16.56 0 13.37 0L13.37 0 0 0 6.08-28.57 17.91-28.57Q19.66-28.57 21.4-28.33 23.13-28.08 24.5-27.36 25.88-26.64 26.73-25.36 27.58-24.07 27.58-22.05ZM13.28-16.61L15.34-16.61Q16.34-16.61 17.03-17.19 17.73-17.77 18.18-18.65 18.63-19.53 18.86-20.54 19.08-21.55 19.08-22.36L19.08-22.36Q19.08-23.67 18.47-24.59 17.86-25.52 16.56-25.52L16.56-25.52 15.21-25.52 13.28-16.61ZM10.3-2.83L12.11-2.83Q13.46-2.83 14.35-3.6 15.25-4.37 15.84-5.49 16.43-6.61 16.67-7.85 16.92-9.09 16.92-10.04L16.92-10.04Q16.92-11.61 16.27-12.53 15.62-13.46 14.17-13.46L14.17-13.46 12.51-13.46 10.3-2.83ZM30.38-13.68L31.23-17.68Q33.52-18.81 35.93-19.33 38.34-19.84 41.31-19.84L41.31-19.84Q44.19-19.84 46.08-19.39 47.97-18.95 49.09-18.09 50.22-17.23 50.67-16.06 51.12-14.89 51.12-13.41L51.12-13.41Q51.12-12.55 51.01-11.56 50.89-10.57 50.76-9.9L50.76-9.9 48.64 0 41.4 0 40.59-2.88 40.32-2.88Q38.88-1.3 36.97-0.47 35.05 0.36 33.16 0.36L33.16 0.36Q32.09 0.36 31.05 0.04 30.01-0.27 29.2-0.92 28.39-1.57 27.9-2.59 27.4-3.6 27.4-5.04L27.4-5.04Q27.4-7.38 28.69-8.75 29.97-10.13 32.06-10.82 34.16-11.52 36.79-11.7 39.42-11.88 42.07-11.88L42.07-11.88Q42.16-12.33 42.3-13.16 42.44-13.99 42.44-14.63L42.44-14.63Q42.44-15.43 42.01-16.13 41.58-16.83 40.23-16.83L40.23-16.83Q38.66-16.83 37.91-15.91 37.17-14.98 36.95-13.68L36.95-13.68 30.38-13.68ZM40.86-6.3L41.58-9.76 40.77-9.76Q39.46-9.76 38.54-9.43 37.62-9.09 37.06-8.55 36.49-8.01 36.22-7.33 35.95-6.66 35.95-5.98L35.95-5.98Q35.95-4.91 36.52-4.37 37.08-3.82 37.84-3.82L37.84-3.82Q38.79-3.82 39.71-4.5 40.63-5.17 40.86-6.3L40.86-6.3ZM64.62-16.47L64.89-16.47Q65.83-17.37 67-18.13L67-18.13Q68.04-18.77 69.44-19.3 70.83-19.84 72.54-19.84L72.54-19.84Q74.88-19.84 76.41-18.65 77.94-17.46 77.94-15.39L77.94-15.39Q77.94-14.8 77.8-13.97 77.67-13.14 77.49-12.24 77.31-11.34 77.11-10.42 76.91-9.49 76.77-8.78L76.77-8.78 74.88 0 65.75 0 68.22-11.74Q68.31-12.33 68.44-12.94 68.58-13.54 68.58-14.04L68.58-14.04Q68.58-14.71 68.24-15.14 67.91-15.57 67.23-15.57L67.23-15.57Q66.42-15.57 65.68-14.98 64.94-14.4 64.53-13.99L64.53-13.99 61.56 0 52.38 0 56.48-19.35 63.81-19.35 64.62-16.47ZM95.53-16.43L97.56-19.35 104.85-19.35 101.16-1.84Q100.75 0.18 99.81 1.89 98.86 3.6 97.18 4.86 95.49 6.12 92.95 6.84 90.4 7.56 86.76 7.56L86.76 7.56Q86.08 7.56 85.14 7.54 84.19 7.51 83.2 7.49 82.21 7.47 81.31 7.42 80.41 7.38 79.87 7.33L79.87 7.33 80.73 4.09Q82.17 4.32 83.68 4.34 85.18 4.37 86.26 4.37L86.26 4.37Q87.61 4.37 88.54 4.12 89.46 3.87 90.07 3.33 90.67 2.79 91.06 1.89 91.44 0.99 91.66-0.32L91.66-0.32 92.2-3.24 91.89-3.24Q91.62-2.83 91.1-2.27 90.58-1.71 89.77-1.19 88.96-0.67 87.86-0.34 86.76 0 85.36 0L85.36 0Q83.79 0 82.69-0.47 81.58-0.94 80.91-1.78 80.23-2.61 79.92-3.76 79.6-4.91 79.6-6.25L79.6-6.25Q79.6-6.84 79.69-8.05 79.78-9.27 80.12-10.8 80.46-12.33 81.11-13.93 81.76-15.52 82.87-16.83 83.97-18.13 85.61-18.99 87.25-19.84 89.59-19.84L89.59-19.84Q90.31-19.84 91.17-19.71 92.02-19.57 92.83-19.21 93.64-18.86 94.27-18.18 94.9-17.5 95.26-16.43L95.26-16.43 95.53-16.43ZM92.52-15.43L92.52-15.43Q91.44-15.43 90.72-14.29 90-13.14 89.55-11.61 89.1-10.08 88.9-8.57 88.69-7.06 88.69-6.34L88.69-6.34Q88.69-5.44 88.99-4.84 89.28-4.23 90.04-4.23L90.04-4.23Q90.49-4.23 90.92-4.46 91.35-4.68 91.73-4.97 92.11-5.26 92.41-5.58 92.7-5.89 92.83-6.08L92.83-6.08 94.5-13.95Q94.14-14.45 93.67-14.94 93.19-15.43 92.52-15.43ZM118.98-5.35L121.99-19.35 131.17-19.35 127.03 0 119.74 0 118.93-2.88 118.66-2.88Q117.49-1.48 115.49-0.56 113.49 0.36 111.46 0.36L111.46 0.36Q108.76 0.36 107.23-1.01 105.7-2.38 105.7-4.59L105.7-4.59Q105.7-5.71 106.09-7.4 106.47-9.09 106.78-10.57L106.78-10.57 108.67-19.35 117.81-19.35 115.56-8.82Q115.47-8.46 115.38-7.96 115.29-7.47 115.2-7 115.11-6.52 115.04-6.1 114.97-5.67 114.97-5.4L114.97-5.4Q114.97-4.72 115.27-4.25 115.56-3.78 116.32-3.78L116.32-3.78Q117.13-3.78 117.85-4.32 118.57-4.86 118.98-5.35L118.98-5.35ZM146.7-30.24L142.65-11.16 153.13-19.35 159.07-19.35 150.12-12.01 156.82 0 146.74 0 142.15-9.04 140.26 0 131.08 0 137.47-30.24 146.7-30.24ZM160.42-13.68L161.28-17.68Q163.57-18.81 165.98-19.33 168.39-19.84 171.36-19.84L171.36-19.84Q174.24-19.84 176.13-19.39 178.02-18.95 179.14-18.09 180.27-17.23 180.72-16.06 181.17-14.89 181.17-13.41L181.17-13.41Q181.17-12.55 181.06-11.56 180.94-10.57 180.81-9.9L180.81-9.9 178.69 0 171.45 0 170.64-2.88 170.37-2.88Q168.93-1.3 167.02-0.47 165.1 0.36 163.21 0.36L163.21 0.36Q162.13 0.36 161.1 0.04 160.06-0.27 159.25-0.92 158.44-1.57 157.95-2.59 157.45-3.6 157.45-5.04L157.45-5.04Q157.45-7.38 158.74-8.75 160.02-10.13 162.11-10.82 164.2-11.52 166.84-11.7 169.47-11.88 172.12-11.88L172.12-11.88Q172.21-12.33 172.35-13.16 172.48-13.99 172.48-14.63L172.48-14.63Q172.48-15.43 172.06-16.13 171.63-16.83 170.28-16.83L170.28-16.83Q168.7-16.83 167.96-15.91 167.22-14.98 166.99-13.68L166.99-13.68 160.42-13.68ZM170.91-6.3L171.63-9.76 170.82-9.76Q169.51-9.76 168.59-9.43 167.67-9.09 167.11-8.55 166.54-8.01 166.27-7.33 166-6.66 166-5.98L166-5.98Q166-4.91 166.57-4.37 167.13-3.82 167.89-3.82L167.89-3.82Q168.84-3.82 169.76-4.5 170.68-5.17 170.91-6.3L170.91-6.3Z" transform="translate(0, 30.239999771118164)"></path></g>       </g></g> <g data-gra="path-slogan" fill-rule="" class="tp-slogan" transform="matrix(1,0,0,1,75.40999984741211,44.79999923706055)" opacity="1">  <g transform="scale(1, 1)"><g transform="scale(1)"><path d="M0.99 0L0.99-7.22L5.15-7.22L5.15-6.45L1.90-6.45L1.90-4.18L4.64-4.18L4.64-3.40L1.90-3.40L1.90-0.78L5.26-0.78L5.26 0L0.99 0ZM8.69-2.94L10.86-2.94L10.52-4.04Q10.32-4.64 10.14-5.24Q9.96-5.84 9.79-6.47L9.79-6.47L9.74-6.47Q9.58-5.84 9.40-5.24Q9.23-4.64 9.03-4.04L9.03-4.04L8.69-2.94ZM11.77 0L11.09-2.20L8.46-2.20L7.76 0L6.83 0L9.27-7.22L10.31-7.22L12.75 0L11.77 0ZM14.24-0.93L14.79-1.57Q15.18-1.17 15.70-0.92Q16.22-0.67 16.78-0.67L16.78-0.67Q17.50-0.67 17.89-1.00Q18.29-1.32 18.29-1.85L18.29-1.85Q18.29-2.12 18.20-2.32Q18.10-2.51 17.94-2.65Q17.78-2.78 17.56-2.89Q17.34-3.00 17.09-3.12L17.09-3.12L16.06-3.57Q15.80-3.68 15.54-3.84Q15.28-3.99 15.07-4.21Q14.86-4.43 14.73-4.74Q14.59-5.04 14.59-5.43L14.59-5.43Q14.59-5.84 14.77-6.19Q14.94-6.54 15.24-6.80Q15.54-7.06 15.95-7.20Q16.37-7.35 16.86-7.35L16.86-7.35Q17.51-7.35 18.06-7.10Q18.61-6.85 18.99-6.46L18.99-6.46L18.50-5.86Q18.17-6.18 17.77-6.36Q17.37-6.54 16.86-6.54L16.86-6.54Q16.26-6.54 15.89-6.26Q15.52-5.98 15.52-5.49L15.52-5.49Q15.52-5.22 15.62-5.04Q15.73-4.86 15.90-4.72Q16.08-4.59 16.29-4.48Q16.50-4.38 16.72-4.29L16.72-4.29L17.74-3.85Q18.05-3.72 18.32-3.55Q18.60-3.38 18.80-3.15Q18.99-2.93 19.11-2.62Q19.23-2.32 19.23-1.92L19.23-1.92Q19.23-1.50 19.06-1.12Q18.88-0.75 18.57-0.47Q18.25-0.19 17.80-0.03Q17.34 0.13 16.77 0.13L16.77 0.13Q16.01 0.13 15.36-0.15Q14.72-0.44 14.24-0.93L14.24-0.93ZM22.73 0L22.73-2.79L20.57-7.22L21.55-7.22L22.48-5.18Q22.66-4.79 22.82-4.40Q22.99-4.01 23.17-3.61L23.17-3.61L23.22-3.61Q23.40-4.01 23.59-4.40Q23.78-4.79 23.94-5.18L23.94-5.18L24.87-7.22L25.82-7.22L23.66-2.79L23.66 0L22.73 0ZM31.82 0L30.29-7.22L31.23-7.22L31.99-3.29Q32.09-2.69 32.20-2.12Q32.31-1.55 32.41-0.96L32.41-0.96L32.46-0.96Q32.58-1.55 32.71-2.13Q32.84-2.71 32.96-3.29L32.96-3.29L33.96-7.22L34.80-7.22L35.80-3.29Q35.93-2.72 36.06-2.13Q36.20-1.55 36.33-0.96L36.33-0.96L36.37-0.96Q36.47-1.55 36.57-2.13Q36.67-2.71 36.78-3.29L36.78-3.29L37.54-7.22L38.42-7.22L36.92 0L35.82 0L34.73-4.34Q34.63-4.76 34.55-5.16Q34.47-5.57 34.38-5.98L34.38-5.98L34.34-5.98Q34.25-5.57 34.16-5.16Q34.06-4.76 33.97-4.34L33.97-4.34L32.91 0L31.82 0ZM41.57-2.94L43.74-2.94L43.40-4.04Q43.20-4.64 43.03-5.24Q42.85-5.84 42.67-6.47L42.67-6.47L42.63-6.47Q42.46-5.84 42.29-5.24Q42.11-4.64 41.91-4.04L41.91-4.04L41.57-2.94ZM44.65 0L43.97-2.20L41.34-2.20L40.65 0L39.71 0L42.16-7.22L43.19-7.22L45.63 0L44.65 0ZM48.67 0L48.67-2.79L46.50-7.22L47.48-7.22L48.41-5.18Q48.59-4.79 48.76-4.40Q48.92-4.01 49.11-3.61L49.11-3.61L49.15-3.61Q49.34-4.01 49.53-4.40Q49.71-4.79 49.88-5.18L49.88-5.18L50.80-7.22L51.76-7.22L49.59-2.79L49.59 0L48.67 0ZM58.46 0L58.46-6.45L56.28-6.45L56.28-7.22L61.56-7.22L61.56-6.45L59.38-6.45L59.38 0L58.46 0ZM66.25 0.13L66.25 0.13Q65.57 0.13 65.01-0.13Q64.44-0.40 64.03-0.89Q63.62-1.38 63.40-2.07Q63.17-2.77 63.17-3.64L63.17-3.64Q63.17-4.51 63.40-5.20Q63.62-5.88 64.03-6.36Q64.44-6.84 65.01-7.09Q65.57-7.35 66.25-7.35L66.25-7.35Q66.94-7.35 67.50-7.09Q68.07-6.83 68.48-6.35Q68.89-5.87 69.12-5.19Q69.34-4.50 69.34-3.64L69.34-3.64Q69.34-2.77 69.12-2.07Q68.89-1.38 68.48-0.89Q68.07-0.40 67.50-0.13Q66.94 0.13 66.25 0.13ZM66.25-0.67L66.25-0.67Q66.74-0.67 67.13-0.88Q67.52-1.09 67.80-1.48Q68.08-1.87 68.23-2.41Q68.39-2.96 68.39-3.64L68.39-3.64Q68.39-4.31 68.23-4.85Q68.08-5.39 67.80-5.76Q67.52-6.14 67.13-6.34Q66.74-6.54 66.25-6.54L66.25-6.54Q65.77-6.54 65.38-6.34Q64.99-6.14 64.71-5.76Q64.43-5.39 64.27-4.85Q64.12-4.31 64.12-3.64L64.12-3.64Q64.12-2.96 64.27-2.41Q64.43-1.87 64.71-1.48Q64.99-1.09 65.38-0.88Q65.77-0.67 66.25-0.67ZM74.59-0.93L75.14-1.57Q75.52-1.17 76.05-0.92Q76.57-0.67 77.13-0.67L77.13-0.67Q77.85-0.67 78.24-1.00Q78.64-1.32 78.64-1.85L78.64-1.85Q78.64-2.12 78.54-2.32Q78.45-2.51 78.29-2.65Q78.13-2.78 77.91-2.89Q77.69-3.00 77.44-3.12L77.44-3.12L76.40-3.57Q76.15-3.68 75.89-3.84Q75.62-3.99 75.41-4.21Q75.21-4.43 75.07-4.74Q74.94-5.04 74.94-5.43L74.94-5.43Q74.94-5.84 75.11-6.19Q75.28-6.54 75.59-6.80Q75.89-7.06 76.30-7.20Q76.71-7.35 77.21-7.35L77.21-7.35Q77.86-7.35 78.41-7.10Q78.96-6.85 79.34-6.46L79.34-6.46L78.85-5.86Q78.52-6.18 78.12-6.36Q77.71-6.54 77.21-6.54L77.21-6.54Q76.60-6.54 76.23-6.26Q75.87-5.98 75.87-5.49L75.87-5.49Q75.87-5.22 75.97-5.04Q76.07-4.86 76.25-4.72Q76.43-4.59 76.64-4.48Q76.84-4.38 77.06-4.29L77.06-4.29L78.09-3.85Q78.40-3.72 78.67-3.55Q78.95-3.38 79.14-3.15Q79.34-2.93 79.46-2.62Q79.57-2.32 79.57-1.92L79.57-1.92Q79.57-1.50 79.40-1.12Q79.23-0.75 78.91-0.47Q78.59-0.19 78.14-0.03Q77.69 0.13 77.12 0.13L77.12 0.13Q76.36 0.13 75.71-0.15Q75.06-0.44 74.59-0.93L74.59-0.93ZM81.99 0L81.99-7.22L82.90-7.22L82.90-4.19L86.26-4.19L86.26-7.22L87.18-7.22L87.18 0L86.26 0L86.26-3.40L82.90-3.40L82.90 0L81.99 0ZM92.83 0.13L92.83 0.13Q92.14 0.13 91.58-0.13Q91.01-0.40 90.60-0.89Q90.20-1.38 89.97-2.07Q89.75-2.77 89.75-3.64L89.75-3.64Q89.75-4.51 89.97-5.20Q90.20-5.88 90.60-6.36Q91.01-6.84 91.58-7.09Q92.14-7.35 92.83-7.35L92.83-7.35Q93.51-7.35 94.07-7.09Q94.64-6.83 95.05-6.35Q95.47-5.87 95.69-5.19Q95.92-4.50 95.92-3.64L95.92-3.64Q95.92-2.77 95.69-2.07Q95.47-1.38 95.05-0.89Q94.64-0.40 94.07-0.13Q93.51 0.13 92.83 0.13ZM92.83-0.67L92.83-0.67Q93.31-0.67 93.70-0.88Q94.09-1.09 94.37-1.48Q94.65-1.87 94.81-2.41Q94.96-2.96 94.96-3.64L94.96-3.64Q94.96-4.31 94.81-4.85Q94.65-5.39 94.37-5.76Q94.09-6.14 93.70-6.34Q93.31-6.54 92.83-6.54L92.83-6.54Q92.34-6.54 91.95-6.34Q91.56-6.14 91.28-5.76Q91.00-5.39 90.85-4.85Q90.69-4.31 90.69-3.64L90.69-3.64Q90.69-2.96 90.85-2.41Q91.00-1.87 91.28-1.48Q91.56-1.09 91.95-0.88Q92.34-0.67 92.83-0.67ZM98.47 0L98.47-7.22L100.68-7.22Q101.27-7.22 101.77-7.11Q102.26-7.00 102.61-6.75Q102.96-6.50 103.15-6.09Q103.34-5.69 103.34-5.09L103.34-5.09Q103.34-4.52 103.15-4.10Q102.96-3.68 102.60-3.41Q102.25-3.13 101.76-3.00Q101.27-2.86 100.68-2.86L100.68-2.86L99.38-2.86L99.38 0L98.47 0ZM99.38-3.61L100.57-3.61Q101.51-3.61 101.97-3.97Q102.43-4.32 102.43-5.09L102.43-5.09Q102.43-5.87 101.97-6.18Q101.50-6.48 100.57-6.48L100.57-6.48L99.38-6.48L99.38-3.61Z" transform="translate(-0.99, 7.348)"></path></g></g></g></g></mask><defs v-gra="od"></defs></svg>